<?xml version="1.0" encoding="utf-8"?>
<!-- Generator: Adobe Illustrator 18.1.1, SVG Export Plug-In . SVG Version: 6.00 Build 0)  -->
<svg version="1.1" id="Layer_1" xmlns="http://www.w3.org/2000/svg" xmlns:xlink="http://www.w3.org/1999/xlink" x="0px" y="0px"
	 viewBox="0 0 339.4 134" style="enable-background:new 0 0 339.4 134;" xml:space="preserve">
<style type="text/css">
	.st0{fill:#010101;}
	.st1{fill:#FDC20F;}
</style>
<g>
	<g>
		<path class="st0" d="M23.2,37.5H12.9c-1,0-1.7,0.8-1.7,1.7v80.1c0,1,0.8,1.8,1.7,1.8h10.2c1,0,1.7-0.8,1.7-1.8V39.2
			C24.9,38.3,24.1,37.5,23.2,37.5z"/>
		<path class="st0" d="M13,23.5h10.2c1,0,1.7-0.8,1.7-1.7V11.6c0-1-0.8-1.7-1.7-1.7H13c-1,0-1.7,0.8-1.7,1.7v10.1
			C11.2,22.7,12,23.5,13,23.5z"/>
		<path class="st0" d="M48.8,107.5H38.7c-1,0-1.7,0.8-1.7,1.7v10.1c0,1,0.8,1.7,1.7,1.7h10.1c1,0,1.7-0.8,1.7-1.7v-10.1
			C50.5,108.3,49.7,107.5,48.8,107.5z"/>
		<path class="st0" d="M203.5,37.5h-21.3c-1,0-1.8,0.8-1.8,1.7v6.6c-4.4-5-10.3-8.3-17.2-8.3H137c-1,0-1.8,0.8-1.8,1.7v80.1
			c0,1,0.8,1.7,1.8,1.7h10.1c1,0,1.8-0.8,1.8-1.7V51.1h14.3c6.8,0,12.4,5.6,12.4,12.4v55.9c0,1,0.8,1.7,1.7,1.7h10.2
			c1,0,1.7-0.8,1.7-1.7V51.1h14.2c6.8,0,12.4,5.6,12.4,12.4v55.8c0,1,0.8,1.7,1.7,1.7h10.2c1,0,1.7-0.8,1.7-1.7V63.5
			C229.5,49.2,217.9,37.5,203.5,37.5z"/>
		<path class="st1" d="M324.6,72.4h-33.2V39.2c0-1-0.8-1.7-1.7-1.7h-10.2c-1,0-1.7,0.8-1.7,1.7v33.1h-33.2c-1,0-1.7,0.8-1.7,1.7
			v10.2c0,1,0.8,1.8,1.7,1.8h33.2v33.2c0,1,0.8,1.7,1.7,1.7h10.2c1,0,1.7-0.8,1.7-1.7V86.1h33.2c1,0,1.7-0.8,1.7-1.8V74.1
			C326.4,73.2,325.6,72.4,324.6,72.4z"/>
		<path class="st0" d="M95.7,37.5h-30c-1,0-1.7,0.8-1.7,1.8v10.1c0,1,0.8,1.7,1.7,1.7h30c6.8,0,12.4,5.5,12.4,12.4V69H84
			c-14.3,0-26,11.7-26,26v0.1c0,14.4,11.7,26,26,26h36c1,0,1.7-0.8,1.7-1.7V63.6C121.7,49.2,110,37.5,95.7,37.5z M108.1,107.5H84
			c-6.8,0-12.3-5.6-12.4-12.5c0-6.8,5.5-12.4,12.4-12.4h24.1V107.5z"/>
	</g>
</g>
</svg>
