<svg id="Layer_1" xmlns="http://www.w3.org/2000/svg" viewBox="0 0 339.4 134"><style>.st0{fill:#010101}</style><path class="st0" d="M23.2 37.5H12.9c-1 0-1.7.8-1.7 1.7v80.1c0 1 .8 1.8 1.7 1.8h10.2c1 0 1.7-.8 1.7-1.8V39.2c.1-.9-.7-1.7-1.6-1.7zM13 23.5h10.2c1 0 1.7-.8 1.7-1.7V11.6c0-1-.8-1.7-1.7-1.7H13c-1 0-1.7.8-1.7 1.7v10.1c-.1 1 .7 1.8 1.7 1.8zM48.8 107.5H38.7c-1 0-1.7.8-1.7 1.7v10.1c0 1 .8 1.7 1.7 1.7h10.1c1 0 1.7-.8 1.7-1.7v-10.1c0-.9-.8-1.7-1.7-1.7zM203.5 37.5h-21.3c-1 0-1.8.8-1.8 1.7v6.6c-4.4-5-10.3-8.3-17.2-8.3H137c-1 0-1.8.8-1.8 1.7v80.1c0 1 .8 1.7 1.8 1.7h10.1c1 0 1.8-.8 1.8-1.7V51.1h14.3c6.8 0 12.4 5.6 12.4 12.4v55.9c0 1 .8 1.7 1.7 1.7h10.2c1 0 1.7-.8 1.7-1.7V51.1h14.2c6.8 0 12.4 5.6 12.4 12.4v55.8c0 1 .8 1.7 1.7 1.7h10.2c1 0 1.7-.8 1.7-1.7V63.5c.1-14.3-11.5-26-25.9-26z"/><path d="M324.6 72.4h-33.2V39.2c0-1-.8-1.7-1.7-1.7h-10.2c-1 0-1.7.8-1.7 1.7v33.1h-33.2c-1 0-1.7.8-1.7 1.7v10.2c0 1 .8 1.8 1.7 1.8h33.2v33.2c0 1 .8 1.7 1.7 1.7h10.2c1 0 1.7-.8 1.7-1.7V86.1h33.2c1 0 1.7-.8 1.7-1.8V74.1c.1-.9-.7-1.7-1.7-1.7z" fill="#fdc20f"/><path class="st0" d="M95.7 37.5h-30c-1 0-1.7.8-1.7 1.8v10.1c0 1 .8 1.7 1.7 1.7h30c6.8 0 12.4 5.5 12.4 12.4V69H84c-14.3 0-26 11.7-26 26v.1c0 14.4 11.7 26 26 26h36c1 0 1.7-.8 1.7-1.7V63.6c0-14.4-11.7-26.1-26-26.1zm12.4 70H84c-6.8 0-12.3-5.6-12.4-12.5 0-6.8 5.5-12.4 12.4-12.4h24.1v24.9z"/></svg>